<!-- Generated by IcoMoon.io -->
<svg version="1.1" xmlns="http://www.w3.org/2000/svg" width="768" height="768" viewBox="0 0 768 768">
<title></title>
<g id="icomoon-ignore">
</g>
<path d="M696 0h-624c-39.6 0-72 32.4-72 72v624c0 39.6 32.4 72 72 72h624c39.6 0 72-32.4 72-72v-624c0-39.6-32.4-72-72-72zM288 624h-96v-336h96v336zM240 240c-26.55 0-48-21.45-48-48s21.45-48 48-48c26.55 0 48 21.45 48 48s-21.45 48-48 48zM624 624h-96v-192c0-26.55-21.45-48-48-48s-48 21.45-48 48v192h-96v-336h96v59.55c19.8-27.15 50.1-59.55 84-59.55 59.7 0 108 53.7 108 120v216z"></path>
</svg>
